<svg version="1.1" id="Layer_1" xmlns="http://www.w3.org/2000/svg" xmlns:xlink="http://www.w3.org/1999/xlink" x="0px" y="0px"
	 width="100%" viewBox="0 0 272 128" enable-background="new 0 0 272 128" xml:space="preserve">
<path fill="#000000" opacity="1.000000" stroke="none" 
	d="
M140.201508,85.000061 
	C140.198288,92.495346 140.300888,99.492973 140.145126,106.484856 
	C140.070312,109.843391 140.727722,112.043480 144.733658,111.723846 
	C146.201538,111.606720 147.940369,111.714478 148.027069,113.841087 
	C148.127426,116.302246 146.254166,116.298584 144.564133,116.308556 
	C139.567841,116.338028 134.571091,116.333336 129.574844,116.296631 
	C128.070648,116.285583 126.345673,116.293755 126.183212,114.235611 
	C125.992172,111.815338 127.858948,111.523109 129.557404,111.703697 
	C133.829590,112.157951 134.258865,110.109863 134.237213,106.351051 
	C134.126892,87.203903 133.672943,68.050873 134.462540,48.904751 
	C134.551178,46.755360 134.053467,44.582645 134.131485,42.431767 
	C134.257202,38.965961 133.120789,37.009403 129.291763,37.310585 
	C127.723846,37.433910 126.160934,37.059956 126.200737,34.977924 
	C126.240776,32.884224 127.864037,32.728527 129.401627,32.724037 
	C139.727707,32.693874 150.054520,32.762535 160.379623,32.656113 
	C163.433090,32.624638 164.225739,34.781391 165.261459,36.859005 
	C176.254349,58.910385 187.241867,80.964439 198.244522,103.010941 
	C199.025848,104.576576 199.914764,106.088539 200.909424,107.910797 
	C202.106247,105.908562 201.661484,104.220169 201.664764,102.635948 
	C201.705475,82.982567 201.613754,63.328587 201.741608,43.675964 
	C201.768036,39.611355 201.329544,36.665058 196.208847,37.303898 
	C194.723450,37.489212 193.623627,36.862644 193.688675,35.043213 
	C193.750702,33.308754 194.764481,32.742081 196.290665,32.736198 
	C201.786423,32.715019 207.282211,32.705345 212.778000,32.695492 
	C214.275406,32.692806 215.370926,33.099731 215.394974,34.920246 
	C215.417450,36.622574 214.579956,37.539886 212.990936,37.326855 
	C207.527817,36.594437 207.239517,39.811176 207.262985,44.007957 
	C207.385971,65.992508 207.176788,87.979652 207.418167,109.962219 
	C207.473221,114.976288 206.077789,116.814598 200.947952,116.438217 
	C195.149551,116.012787 189.287140,116.136963 183.470139,116.404465 
	C179.776138,116.574326 177.797562,115.190582 176.172043,111.889778 
	C165.873230,90.976646 155.376251,70.161079 144.940765,49.315273 
	C143.682953,46.802696 142.401947,44.301735 140.201187,41.920250 
	C140.201187,56.113518 140.201187,70.306786 140.201508,85.000061 
M153.501541,54.063526 
	C162.460434,72.067505 171.415268,90.073509 180.385818,108.071686 
	C181.114395,109.533478 181.638123,111.460953 183.624252,111.496323 
	C187.511993,111.565567 191.489624,112.387817 195.249023,110.900085 
	C195.567535,108.603516 194.263367,107.147873 193.477905,105.567596 
	C183.339935,85.170944 173.145432,64.802399 162.978149,44.420300 
	C159.235840,36.918159 154.793900,35.284870 146.314011,38.621555 
	C147.805115,43.901562 151.099258,48.382690 153.501541,54.063526 
z"/>
<path fill="#000000" opacity="1.000000" stroke="none" 
	d="
M102.002609,111.628159 
	C105.826218,111.626694 109.160194,111.525185 112.485298,111.653397 
	C115.479385,111.768852 116.732117,110.499939 116.654022,107.520935 
	C116.553711,103.694275 116.612602,99.861916 116.673660,96.033150 
	C116.705322,94.047729 116.507553,91.759377 119.559074,91.865837 
	C122.182816,91.957382 122.215698,93.949867 122.227737,95.812698 
	C122.263260,101.307091 122.166634,106.803246 122.269386,112.295944 
	C122.326126,115.329384 120.955177,116.374527 118.039963,116.365181 
	C98.226021,116.301620 78.411774,116.337234 58.597725,116.294342 
	C57.026817,116.290939 54.984879,116.596146 54.914280,114.078606 
	C54.844112,111.576683 56.824436,111.621742 58.437889,111.705261 
	C62.204704,111.900269 62.763084,109.751617 62.754009,106.648743 
	C62.691170,85.169678 62.679485,63.690182 62.766617,42.211288 
	C62.779617,39.006546 62.116726,37.054043 58.393368,37.307858 
	C56.792984,37.416950 54.777107,37.406986 54.905937,34.899193 
	C55.032402,32.437393 57.065342,32.712219 58.644402,32.709194 
	C78.458450,32.671219 98.272675,32.711269 118.086617,32.650703 
	C121.020195,32.641735 122.346756,33.721989 122.287346,36.741268 
	C122.176010,42.400219 122.246292,48.062675 122.233612,53.723660 
	C122.228981,55.792076 121.668785,57.335052 119.129166,57.200832 
	C116.716454,57.073322 116.689835,55.351967 116.670807,53.649391 
	C116.628021,49.820152 116.517532,45.986065 116.657242,42.162090 
	C116.778275,38.849720 115.662476,37.253670 112.083946,37.346760 
	C105.428223,37.519909 98.763695,37.467278 92.105064,37.364105 
	C89.118378,37.317833 87.885406,38.574036 87.911461,41.520931 
	C87.985062,49.845394 88.014687,58.171318 87.936958,66.495506 
	C87.906319,69.776855 89.424904,70.846703 92.534531,70.777855 
	C98.359192,70.648903 104.189255,70.723160 110.016510,70.775017 
	C112.014618,70.792793 114.298531,70.672485 114.184212,73.691704 
	C114.082413,76.380562 111.967804,76.213905 110.163551,76.230125 
	C104.169807,76.284004 98.174118,76.338860 92.181770,76.238167 
	C89.224998,76.188469 87.938103,77.384567 87.947670,80.355659 
	C87.977707,89.679443 87.950134,99.004089 87.840401,108.327171 
	C87.812950,110.659500 88.644798,111.692299 91.020363,111.636780 
	C94.514771,111.555115 98.012688,111.623619 102.002609,111.628159 
M68.449402,108.829010 
	C70.927933,114.373825 75.685249,111.222328 79.321281,111.310982 
	C82.633537,111.391762 81.779259,107.929100 81.784653,105.783066 
	C81.837341,84.822853 81.629410,63.860138 81.905586,42.903538 
	C81.980217,37.239876 78.983017,37.387943 74.992867,37.307785 
	C70.768059,37.222908 68.216583,37.658611 68.286957,43.077599 
	C68.567726,64.699699 68.407913,86.327530 68.449402,108.829010 
z"/>
</svg>